<?xml version="1.0" encoding="UTF-8"?><svg id="b" xmlns="http://www.w3.org/2000/svg" viewBox="0 0 391.44 336.81"><defs><style>.d{fill:#fff;opacity:.92;}.e{fill:#438ac9;}.f{fill:#464547;opacity:.1;}.g{fill:#0f0f0f;stroke:#438ac9;stroke-miterlimit:10;stroke-width:16px;}</style></defs><g id="c"><g><path class="g" d="m37.67,327.79l298.37,1.02c14.14.05,26.06-10.52,27.71-24.56l19.57-166.44c1.18-10.07-6.67-18.92-16.81-18.95l-188.15-.52c-5.51-.02-10.68-2.64-13.94-7.08l-15.52-21.15c-4.01-5.46-10.35-8.72-17.12-8.81l-83.34-1.06c-12.67-.16-23.3,9.51-24.34,22.13l-16,194.4c-1.78,24.69,16.62,30.97,29.55,31.01Z"/><circle class="e" cx="264.75" cy="142.58" r="125.38"/><path class="e" d="m44.2,267.66c-8.44-9.16,7.21-39.84,24.26-60.54,31.03-37.66,71.32-47.83,69.44-53.78-2.79-8.84-89.2,20.99-98.98,2.6-6.75-12.69,24.03-47.51,59.12-67.11,35.11-19.61,68.5-20.6,68.1-26.55-.51-7.74-56.88-3.7-59.53-16-2.61-12.06,45.96-42.14,96.89-45.87,79.56-5.83,178.81,50.85,180.48,114.5,1.8,68.19-108.64,134.32-184.39,132.94-19.5-.36-40.34-5.16-75.47.99-47.18,8.27-71.63,27.81-79.92,18.81Z"/><path class="e" d="m306.7,45.35s59.34-24.28,70.22-14.59c11.47,10.21,3.57,79.06-11.96,82.77-15.53,3.71-58.26-68.17-58.26-68.17Z"/><path class="d" d="m37.67,327.79l298.37,1.02c14.14.05,26.06-10.52,27.71-24.56l19.57-166.44c1.18-10.07-6.67-18.92-16.81-18.95l-188.15-.52c-5.51-.02-10.68-2.64-13.94-7.08l-15.52-21.15c-4.01-5.46-10.35-8.72-17.12-8.81l-83.34-1.06c-12.67-.16-23.3,9.51-24.34,22.13l-16,194.4c-1.78,24.69,16.62,30.97,29.55,31.01Z"/><path class="f" d="m47.27,88.24s-13.26.87-15,14.03c-1.36,10.26-16.21,196.74-16.21,196.74,0,0-2.37,20.13,20.32,20.61,4.9.1,297.6,1.17,300.61,1.13,7.11-.1,16.63-5,18.66-16.77,2.43-14.1,10.32-87.32,10.32-87.32,0,0-27.52,41.32-81.03,49.94-51.9,8.35-88.48-18.81-88.48-18.81,0,0-35.58-2.58-42.46-2.09-53.39,3.79-63.72,13.11-96.8,23.19-28.19,8.59-13.52-31.32,11.87-62.71,16.58-20.5,37.48-32.71,63.16-47.42,12.75-7.3.71-7.4-5.35-6.74-17.34,1.89-70.14,15.61-84.11,7.65-18.77-10.69,21.21-48.97,43.73-63.94,6.42-4.27,11.37-6.82,11.37-6.82l-50.6-.66Z"/></g></g></svg>